<?xml version="1.0" encoding="UTF-8" standalone="no"?>
<svg
   sodipodi:docname="dannke_games_logo.svg"
   inkscape:version="1.1 (c68e22c387, 2021-05-23)"
   id="svg8"
   version="1.1"
   viewBox="0 0 65.815108 94.86904"
   height="358.56015"
   width="248.75002"
   xmlns:inkscape="http://www.inkscape.org/namespaces/inkscape"
   xmlns:sodipodi="http://sodipodi.sourceforge.net/DTD/sodipodi-0.dtd"
   xmlns="http://www.w3.org/2000/svg"
   xmlns:svg="http://www.w3.org/2000/svg"
   xmlns:rdf="http://www.w3.org/1999/02/22-rdf-syntax-ns#"
   xmlns:cc="http://creativecommons.org/ns#"
   xmlns:dc="http://purl.org/dc/elements/1.1/">
  <defs
     id="defs2" />
  <sodipodi:namedview
     fit-margin-bottom="0"
     fit-margin-right="0"
     fit-margin-left="0"
     fit-margin-top="0"
     inkscape:snap-global="false"
     units="px"
     inkscape:document-rotation="0"
     inkscape:window-maximized="1"
     inkscape:window-y="-8"
     inkscape:window-x="-8"
     inkscape:window-height="746"
     inkscape:window-width="1366"
     showgrid="false"
     inkscape:current-layer="g898"
     inkscape:document-units="mm"
     inkscape:cy="150.38645"
     inkscape:cx="524.88943"
     inkscape:zoom="0.7"
     inkscape:pageshadow="2"
     inkscape:pageopacity="0.0"
     borderopacity="1.0"
     bordercolor="#666666"
     pagecolor="#ffffff"
     id="base"
     inkscape:pagecheckerboard="1" />
  <metadata
     id="metadata5">
    <rdf:RDF>
      <cc:Work
         rdf:about="">
        <dc:format>image/svg+xml</dc:format>
        <dc:type
           rdf:resource="http://purl.org/dc/dcmitype/StillImage" />
      </cc:Work>
    </rdf:RDF>
  </metadata>
  <g
     transform="translate(-6.8830786,-80.257158)"
     id="layer1"
     inkscape:groupmode="layer"
     inkscape:label="Camada 1">
    <g
       id="g898"
       transform="matrix(1.1423334,0,0,1.1423334,-15.699394,-12.237304)">
      <g
         id="g9259">
        <path
           id="path212"
           style="opacity:1;fill:#000000;stroke:none;stroke-width:0.231617px;stroke-linecap:butt;stroke-linejoin:miter;stroke-opacity:1"
           d="m 24.506637,87.351195 c -0.390154,0.01336 -1.930469,2.135285 -1.930469,2.135285 l -0.526112,-0.409401 -0.175524,0.701634 -0.409398,-0.233877 -0.175524,0.117165 -0.585286,-0.409718 c -0.523896,0.168154 -0.712434,0.671667 -0.935601,1.140552 l 0.760444,0.7896 -0.06876,1.04318 c 2.347214,2.60976 7.522431,7.0247 7.087831,7.730656 l 0.467756,0.409399 0.233877,-0.0584 4.854901,4.91326 0.04162,0.68489 c 4.140436,4.31688 8.572006,10.16969 8.697834,10.6797 0.125831,0.51001 1.131394,0.37819 1.131394,0.37819 l 3.465202,3.75788 c -3.73963,2.58442 -7.899874,4.29682 -13.803805,2.39805 l -1.52089,5.79086 c 7.347876,1.34008 13.255347,-0.20057 18.424827,-3.21729 l 0.292687,0.4094 -0.756759,0.96356 0.05467,0.67449 c -0.197219,0.329 -0.5705,0.7338 -0.546534,1.08738 l 0.889954,-0.77866 c 0.06409,-0.12819 0.4097,0.62672 0.410112,1.12848 4.63e-4,0.50176 1.95105,2.94371 2.697645,3.30054 0.746602,0.35682 1.111488,0.0584 1.111488,0.0584 l 0.292236,0.76045 -2.807446,6.0831 -0.760443,0.70209 c 0.977874,1.10833 1.652237,2.52017 4.269976,1.98864 l 0.760444,-0.93597 c 0.472801,-2.29094 1.346202,-3.77994 2.280881,-5.14713 l 0.877609,-0.23388 0.701636,-0.70209 1.228654,1.11149 5.6737,14.27202 c 0.480042,2.69198 1.659317,6.94761 2.398047,7.19459 0.738729,0.24697 8.773834,-5.90804 8.773834,-5.90804 l -7.955035,-11.58128 -1.520887,-0.70209 -4.854901,-6.60921 c 0,0 0.03709,-0.38881 0.07283,-0.83237 0.701625,0.124 0.407298,-0.34417 0.241569,-1.21282 -0.165731,-0.86865 0.08621,-1.57291 -0.06559,-1.97598 -0.178234,-0.47327 -13.935899,-14.17023 -13.935899,-14.17023 l 0.05854,-0.58479 -0.51351,-0.64187 1.149149,0.74185 0.240087,-0.47848 -0.801287,-0.3108 0.03686,-0.44729 -0.694273,-0.65121 -0.321655,0.0858 c -0.972292,-1.34332 -1.947977,-2.66629 -3.072836,-3.09422 l -0.584969,0.3218 -0.175475,-0.84832 -7.135962,-6.87257 -1.111308,-0.1465 -5.147134,-5.439815 c -1.137511,0.36662 -2.299239,0.64835 -3.743412,-0.0584 l -3.802222,-3.80176 1.345367,-3.334016 c 0,0 0.507804,-0.01466 0.52634,-0.497366 0.01853,-0.482708 -0.720928,-1.241873 -1.111083,-1.228518 z m -1.210285,2.185951 0.744159,0.826943 c -0.09546,0.337229 -0.148712,0.708216 -0.620209,0.744606 L 22.51012,90.074568 c -0.0083,-0.449563 0.421334,-0.461102 0.786232,-0.537422 z m -1.323654,2.936369 4.697791,4.86135 -0.35498,0.22607 -4.591164,-4.75673 z m 30.025106,34.623055 c 0,0 2.247104,1.85844 2.135034,2.33964 -0.11207,0.4812 -1.01297,1.07181 -2.105788,1.03829 0.112392,0.2023 1.444463,0.4715 1.849727,0.13174 0.708471,-0.59395 1.5428,0.14598 1.5428,0.14598 l -1.813122,1.52089 c -0.585592,0.57839 -4.016551,-3.05945 -3.30506,-3.68506 z"
           sodipodi:nodetypes="zccccccccccccccscccccccccczscccccccccccscccccsscccccccccccccccccczzccccccccccczcscccc" />
        <path
           id="path212-9"
           style="fill:#000000;stroke:none;stroke-width:0.231617px;stroke-linecap:butt;stroke-linejoin:miter;stroke-opacity:1"
           d="m 72.645431,87.351192 c 0.390154,0.01336 1.930469,2.135285 1.930469,2.135285 l 0.526112,-0.409401 0.175524,0.701634 0.409398,-0.233877 0.175524,0.117165 0.585286,-0.409718 c 0.523896,0.168154 0.712434,0.671667 0.935601,1.140552 l -0.760444,0.7896 0.06876,1.043181 c -2.347214,2.60976 -7.522431,7.0247 -7.087831,7.73066 l -0.467756,0.409397 -0.233877,-0.0584 -4.854901,4.91326 -0.04162,0.68489 c -4.140436,4.31688 -8.572006,10.16969 -8.697834,10.6797 -0.125831,0.51001 -1.131394,0.37819 -1.131394,0.37819 l -3.465202,3.75788 c 3.73963,2.58442 7.899874,4.29682 13.803805,2.39805 l 1.52089,5.79086 c -7.347876,1.34008 -13.255347,-0.20057 -18.424827,-3.21729 l -0.292687,0.4094 0.756759,0.96356 -0.05467,0.67449 c 0.197219,0.329 0.5705,0.7338 0.546534,1.08738 l -0.889954,-0.77866 c -0.06409,-0.12819 -0.4097,0.62672 -0.410112,1.12848 -4.63e-4,0.50176 -1.95105,2.94371 -2.697645,3.30054 -0.746602,0.35682 -1.111488,0.0584 -1.111488,0.0584 l -0.292236,0.76045 2.807446,6.0831 0.760443,0.70209 c -0.977874,1.10833 -1.652237,2.52017 -4.269976,1.98864 l -0.760444,-0.93597 c -0.472801,-2.29094 -1.346202,-3.77994 -2.280881,-5.14713 l -0.877609,-0.23388 -0.701636,-0.70209 -1.228654,1.11149 -5.6737,14.27202 c -0.480042,2.69198 -1.659317,6.94761 -2.398047,7.19459 -0.738729,0.24697 -8.773834,-5.90804 -8.773834,-5.90804 l 7.955035,-11.58128 1.520887,-0.70209 4.854901,-6.60921 c 0,0 -0.03709,-0.38881 -0.07283,-0.83237 -0.701625,0.124 -0.407298,-0.34417 -0.241569,-1.21282 0.165731,-0.86865 -0.08621,-1.57291 0.06559,-1.97598 0.178234,-0.47327 13.935899,-14.17023 13.935899,-14.17023 l -0.05854,-0.58479 0.51351,-0.64187 -1.149149,0.74185 -0.240087,-0.47848 0.801287,-0.3108 -0.03686,-0.44729 0.694273,-0.65121 0.321655,0.0858 c 0.972292,-1.34332 1.947977,-2.66629 3.072836,-3.09422 l 0.584969,0.3218 0.175475,-0.84832 7.135962,-6.87257 1.111308,-0.1465 5.147134,-5.439817 c 1.137511,0.36662 2.299239,0.64835 3.743412,-0.0584 l 3.802222,-3.80176 -1.345367,-3.334017 c 0,0 -0.507804,-0.01466 -0.52634,-0.497366 -0.01853,-0.482708 0.720928,-1.241873 1.111083,-1.228518 z m 1.210285,2.185951 -0.744159,0.826943 c 0.09546,0.337229 0.148712,0.708216 0.620209,0.744606 l 0.910182,-1.034127 c 0.0083,-0.449563 -0.421334,-0.461102 -0.786232,-0.537422 z m 1.323654,2.93637 -4.697791,4.86135 0.35498,0.22607 4.591164,-4.75673 z M 45.154264,127.09657 c 0,0 -2.247104,1.85844 -2.135034,2.33964 0.11207,0.4812 1.01297,1.07181 2.105788,1.03829 -0.112392,0.2023 -1.444463,0.4715 -1.849727,0.13174 -0.708471,-0.59395 -1.5428,0.14598 -1.5428,0.14598 l 1.813122,1.52089 c 0.585592,0.57839 4.016551,-3.05945 3.30506,-3.68506 z"
           sodipodi:nodetypes="zccccccccccccccscccccccccczscccccccccccscccccsscccccccccccccccccczzccccccccccczcscccc" />
        <path
           style="fill:#000000;stroke:none;stroke-width:0.058752px;stroke-linecap:butt;stroke-linejoin:miter;stroke-opacity:1"
           d="m 47.761876,81.220084 c 0.65586,-0.45453 0.99512,-0.1967 1.3429,0.042 l -0.0839,1.04914 c 0,0 2.14038,0.7093 2.60906,1.69302 0.46868,0.98373 0.45013,2.56925 0.0572,3.24874 -0.39288,0.67948 -1.43701,1.10638 -1.43701,1.10638 -0.63223,0.90249 -0.39953,1.64635 -0.0962,2.47088 -0.51592,1.02749 -0.3036,1.8034 -0.0369,2.51284 -0.44797,1.05208 -0.15478,1.8611 0.16278,2.60696 -0.21959,0.94576 -0.27959,1.88815 0.27426,2.60187 0,0 1.69068,0.74708 2.17203,1.643856 0.48135,0.89678 0.32343,3.39201 0.32343,3.39201 l -1.17503,0.0839 0.50359,48.09259 -2.51794,12.25396 -3.52511,-11.58251 -0.67145,-48.51224 -1.53025,-0.16786 c 0,0 -0.25472,-2.6773 0.32641,-3.64381 0.58113,-0.966506 2.38819,-1.401376 2.38819,-1.401376 0.48244,-1.61481 0.12209,-2.01226 -0.0705,-2.65208 0.53338,-0.94615 0.2877,-1.76246 -0.1187,-2.55198 0.48473,-0.93816 0.514,-1.84129 -0.0297,-2.70035 0.69837,-0.75202 0.42282,-1.57361 0.0297,-2.4036 0,0 -1.21577,-0.49215 -1.66175,-1.27599 -0.44599,-0.78385 -0.57621,-2.32519 -0.0297,-3.29384 0.54654,-0.96864 2.7597,-1.54305 2.7597,-1.54305 z"
           id="path7660"
           sodipodi:nodetypes="ccczzccccczccccccczccccczzcc" />
        <g
           transform="matrix(0.38728405,0,0,0.38728405,8.8452976,52.523704)"
           id="g876">
          <g
             transform="translate(1.069078,-3.2072344)"
             id="g848">
            <path
               style="fill:#ff0000;stroke:none;stroke-width:0.264583px;stroke-linecap:butt;stroke-linejoin:miter;stroke-opacity:1"
               d="m 31.593431,171.77443 c 5.06236,24.50014 5.51002,85.04446 72.949409,86.17858 67.43939,1.13412 58.44296,-69.64709 66.90178,-85.04465 -3.29734,1.04192 -5.55917,4.98353 -7.9375,1.88989 0.18428,-9.91309 0.11447,-19.79943 -9.07142,-28.72619 -1.82627,5.26794 -2.97849,12.15361 -7.18155,11.71726 -3.25086,-17.88412 -6.46745,-24.71892 -10.77232,-28.15923 -0.32785,4.38827 0.17713,10.16461 -1.51191,12.28423 -3.12313,-9.76552 -6.88351,-19.18622 -16.44197,-24.00149 -1.15556,8.28663 -0.2783,17.83478 -4.15773,22.48958 -1.95529,-14.32174 -10.03853,-25.4579 -8.31548,-30.61607 -7.832669,4.2414 -10.10446,19.60457 -15.119041,29.48215 -6.156762,-7.23532 -4.359904,-14.92743 -6.047621,-23.05655 -7.231671,3.20083 -11.671373,14.17618 -16.063985,24.00149 L 67.123199,127.9292 c -5.513266,2.8821 -9.287278,18.00465 -9.638394,27.97024 -5.44736,-0.25933 -5.315122,-7.02819 -7.9375,-10.58333 -11.259284,10.40342 -8.803024,19.66389 -8.504463,29.10416 z"
               id="path833"
               sodipodi:nodetypes="czccccccccccccccccc"
               inkscape:connector-curvature="0" />
            <path
               id="path837"
               style="opacity:1;fill:#000000;stroke:none;stroke-width:0.755906"
               d="m 260.66797,279.76562 c -2.00777,-0.005 -4.04451,0.0115 -6.10938,0.0469 -54.3719,0.93069 -89.15745,20.36487 -93.5039,72.73047 h -31.75586 v 28.28515 h 33.29297 c 9.53703,36.85328 51.81457,70.71094 88.93554,70.71094 37.78052,0 93.80338,-33.42109 104.32422,-70.71094 h 53.01367 c 7.41905,38.88152 66.14045,74.75001 105.28125,74.75 38.47368,0 82.48886,-36.36991 89.84766,-74.75 h 35.43164 v -28.28515 h -35.2168 c -5.77803,-49.32388 -40.14394,-67.78314 -93.09179,-68.68945 -59.32118,-1.01541 -95.16847,14.11308 -101.87891,68.68945 h -52.35937 c -5.23627,-55.91104 -39.13773,-72.64263 -96.21094,-72.77735 z"
               transform="matrix(0.26458333,0,0,0.26458333,0,97)"
               inkscape:connector-curvature="0" />
          </g>
          <g
             style="opacity:0.5;fill:#000000"
             id="g854"
             transform="translate(1.069078,-3.2072344)">
            <path
               sodipodi:nodetypes="ccsssssccccccccc"
               id="path850"
               d="m 31.593431,171.77443 c 5.06236,24.50014 5.51002,85.04446 72.949409,86.17858 0,0 -5.130892,-1.71482 -2.78773,-16.56839 0.2505,-1.58791 1.49512,-1.19653 -0.58635,-6.96768 -0.52615,-1.45883 0.32455,-11.14117 -0.28648,-12.39414 -2.571113,-5.27229 -5.246891,-8.16141 -5.246891,-8.16141 -1.152239,-5.44561 4.829511,-15.51268 3.92836,-22.49876 -2.109025,-16.35004 -1.950689,-31.1258 6.490991,-81.57629 -7.832669,4.2414 -10.10446,19.60457 -15.119041,29.48215 -6.156762,-7.23532 -4.359904,-14.92743 -6.047621,-23.05655 -7.231671,3.20083 -11.671373,14.17618 -16.063985,24.00149 L 67.123199,127.9292 c -5.513266,2.8821 -9.287278,18.00465 -9.638394,27.97024 -5.44736,-0.25933 -5.315122,-7.02819 -7.9375,-10.58333 -11.259284,10.40342 -8.803024,19.66389 -8.504463,29.10416 z"
               style="fill:#000000;stroke:none;stroke-width:0.264583px;stroke-linecap:butt;stroke-linejoin:miter;stroke-opacity:1"
               inkscape:connector-curvature="0" />
            <path
               transform="matrix(0.26458333,0,0,0.26458333,0,97)"
               d="m 260.66797,279.76562 c -2.00777,-0.005 -4.04451,0.0115 -6.10938,0.0469 -54.3719,0.93069 -89.15745,20.36487 -93.5039,72.73047 h -31.75586 v 28.28515 h 33.29297 c 9.53703,36.85328 51.81457,70.71094 88.93554,70.71094 37.78052,0 93.80338,-33.42109 104.32422,-70.71094 h 53.01367 c 7.41905,38.88152 66.14045,74.75001 105.28125,74.75 38.47368,0 82.48886,-36.36991 89.84766,-74.75 h 35.43164 v -28.28515 h -35.2168 c -5.77803,-49.32388 -40.14394,-67.78314 -93.09179,-68.68945 -59.32118,-1.01541 -95.16847,14.11308 -101.87891,68.68945 h -52.35937 c -5.23627,-55.91104 -39.13773,-72.64263 -96.21094,-72.77735 z"
               style="opacity:1;fill:#000000;stroke:none;stroke-width:0.755906"
               id="path852"
               inkscape:connector-curvature="0" />
          </g>
          <circle
             id="path838"
             style="fill:#00ff00;stroke:#000000;stroke-width:0.264583"
             cx="119.73675"
             cy="114.63979"
             r="0.026700225" />
          <path
             style="opacity:0.5;fill:#000000;stroke:none;stroke-width:0.264583px;stroke-linecap:butt;stroke-linejoin:miter;stroke-opacity:1"
             d="m 119.59703,114.7056 c -1.00386,7.87304 -0.70031,19.31012 -4.15773,22.48957 0.36408,0.21845 4.7998,-7.11687 5.09926,-11.4637 0.29945,-4.34683 -0.94153,-11.02587 -0.94153,-11.02587 z"
             id="path840"
             sodipodi:nodetypes="cczc"
             inkscape:connector-curvature="0" />
          <path
             style="opacity:0.5;fill:#000000;stroke:none;stroke-width:0.264583px;stroke-linecap:butt;stroke-linejoin:miter;stroke-opacity:1"
             d="m 137.55091,126.42285 c -0.29088,4.34335 0.15422,9.54535 -1.51191,12.28424 1.89148,-2.28051 2.42762,-6.79276 2.3904,-8.60481 -0.0372,-1.81204 -0.87849,-3.67943 -0.87849,-3.67943 z"
             id="path842"
             sodipodi:nodetypes="cczc"
             inkscape:connector-curvature="0" />
          <path
             style="opacity:0.5;fill:#000000;stroke:none;stroke-width:0.264583px;stroke-linecap:butt;stroke-linejoin:miter;stroke-opacity:1"
             d="m 155.50477,142.86482 c -2.0793,5.49598 -2.62469,11.8644 -7.18154,11.71727 3.18448,0.65841 5.84257,-3.56718 6.69031,-6.8428 0.84774,-3.27563 0.49123,-4.87447 0.49123,-4.87447 z"
             id="path844"
             sodipodi:nodetypes="cczc"
             inkscape:connector-curvature="0" />
          <path
             style="opacity:0.5;fill:#000000;stroke:none;stroke-width:0.264583px;stroke-linecap:butt;stroke-linejoin:miter;stroke-opacity:1"
             d="m 164.5762,171.59101 c 2.53738,3.13953 5.29167,-1.25992 7.9375,-1.88988 0,0 -3.99001,3.79962 -5.80433,3.63773 -1.81432,-0.16189 -2.13317,-1.74785 -2.13317,-1.74785 z"
             id="path846"
             sodipodi:nodetypes="cczc"
             inkscape:connector-curvature="0" />
          <path
             style="opacity:0.5;fill:#ff0000;stroke:none;stroke-width:0.264583px;stroke-linecap:butt;stroke-linejoin:miter;stroke-opacity:1"
             d="m 85.957155,113.00471 c 1.494468,9.25585 0.316996,15.69663 6.047621,23.05654 0,0 -5.712672,-6.61374 -7.013068,-10.86431 -1.300395,-4.25058 0.965447,-12.19223 0.965447,-12.19223 z"
             id="path853"
             sodipodi:nodetypes="cczc"
             inkscape:connector-curvature="0" />
          <path
             style="opacity:0.5;fill:#ff0000;stroke:none;stroke-width:0.264583px;stroke-linecap:butt;stroke-linejoin:miter;stroke-opacity:1"
             d="m 68.192276,124.72196 c 0,0 -0.512909,4.86188 -0.06207,6.95735 0.450842,2.09548 1.762963,5.32689 1.762963,5.32689 z"
             id="path855"
             sodipodi:nodetypes="czcc"
             inkscape:connector-curvature="0" />
          <path
             style="opacity:0.5;fill:#ff0000;stroke:none;stroke-width:0.264583px;stroke-linecap:butt;stroke-linejoin:miter;stroke-opacity:1"
             d="m 50.616381,142.10888 c 2.483519,3.73067 2.773713,10.20299 7.937502,10.58333 0,0 -3.488382,-0.10463 -5.164746,-2.0196 -1.676365,-1.91497 -2.772756,-8.56373 -2.772756,-8.56373 z"
             id="path857"
             sodipodi:nodetypes="cczc"
             inkscape:connector-curvature="0" />
          <path
             style="opacity:0.5;fill:#ff0000;stroke:none;stroke-width:0.264583px;stroke-linecap:butt;stroke-linejoin:miter;stroke-opacity:1"
             d="m 32.662508,168.5672 c 3.169372,0.88866 6.681265,1.89483 9.449411,2.64583 0,0 -2.523444,0.25968 -4.226465,-0.17937 -1.70302,-0.43904 -5.222946,-2.46646 -5.222946,-2.46646 z"
             id="path859"
             sodipodi:nodetypes="cczc"
             inkscape:connector-curvature="0" />
        </g>
      </g>
    </g>
  </g>
</svg>
