<?xml version="1.0" encoding="UTF-8" standalone="no"?>
<svg
   xmlns:dc="http://purl.org/dc/elements/1.1/"
   xmlns:cc="http://creativecommons.org/ns#"
   xmlns:rdf="http://www.w3.org/1999/02/22-rdf-syntax-ns#"
   xmlns:svg="http://www.w3.org/2000/svg"
   xmlns="http://www.w3.org/2000/svg"
   xmlns:sodipodi="http://sodipodi.sourceforge.net/DTD/sodipodi-0.dtd"
   xmlns:inkscape="http://www.inkscape.org/namespaces/inkscape"
   sodipodi:docname="logo_dannkenome.svg"
   inkscape:version="1.0 (4035a4fb49, 2020-05-01)"
   id="svg8"
   version="1.1"
   viewBox="0 0 248.0742 34.217663"
   height="129.3266"
   width="937.60327">
  <defs
     id="defs2" />
  <sodipodi:namedview
     fit-margin-bottom="0"
     fit-margin-right="0"
     fit-margin-left="0"
     fit-margin-top="0"
     inkscape:snap-global="true"
     units="px"
     inkscape:document-rotation="0"
     inkscape:window-maximized="1"
     inkscape:window-y="-8"
     inkscape:window-x="56"
     inkscape:window-height="746"
     inkscape:window-width="1302"
     showgrid="false"
     inkscape:current-layer="g898"
     inkscape:document-units="mm"
     inkscape:cy="88.703528"
     inkscape:cx="396.50455"
     inkscape:zoom="0.49497475"
     inkscape:pageshadow="2"
     inkscape:pageopacity="0.0"
     borderopacity="1.0"
     bordercolor="#666666"
     pagecolor="#ffffff"
     id="base" />
  <metadata
     id="metadata5">
    <rdf:RDF>
      <cc:Work
         rdf:about="">
        <dc:format>image/svg+xml</dc:format>
        <dc:type
           rdf:resource="http://purl.org/dc/dcmitype/StillImage" />
        <dc:title></dc:title>
      </cc:Work>
    </rdf:RDF>
  </metadata>
  <g
     transform="translate(-10.26157,-97.459133)"
     id="layer1"
     inkscape:groupmode="layer"
     inkscape:label="Camada 1">
    <g
       id="g898"
       transform="matrix(1.1423334,0,0,1.1423334,-15.699394,-12.237304)">
      <text
         transform="scale(0.95697809,1.044956)"
         xml:space="preserve"
         style="font-style:normal;font-weight:normal;font-size:30.6245px;line-height:1.25;font-family:sans-serif;letter-spacing:0px;word-spacing:0px;fill:#000000;fill-opacity:1;stroke:none;stroke-width:0.765614"
         x="60.958431"
         y="116.94427"
         id="text23"><tspan
           sodipodi:role="line"
           id="tspan21"
           x="60.958431"
           y="116.94427"
           style="font-style:normal;font-variant:normal;font-weight:normal;font-stretch:normal;font-family:'Times New Roman';-inkscape-font-specification:'Times New Roman, ';stroke-width:0.765614">Dannke Games</tspan></text>
      <g
         transform="matrix(0.20214707,0,0,0.20214707,18.903026,74.483736)"
         id="g876">
        <g
           transform="translate(1.069078,-3.2072344)"
           id="g848">
          <path
             style="fill:#ff0000;stroke:none;stroke-width:0.264583px;stroke-linecap:butt;stroke-linejoin:miter;stroke-opacity:1"
             d="m 31.593431,171.77443 c 5.06236,24.50014 5.51002,85.04446 72.949409,86.17858 67.43939,1.13412 58.44296,-69.64709 66.90178,-85.04465 -3.29734,1.04192 -5.55917,4.98353 -7.9375,1.88989 0.18428,-9.91309 0.11447,-19.79943 -9.07142,-28.72619 -1.82627,5.26794 -2.97849,12.15361 -7.18155,11.71726 -3.25086,-17.88412 -6.46745,-24.71892 -10.77232,-28.15923 -0.32785,4.38827 0.17713,10.16461 -1.51191,12.28423 -3.12313,-9.76552 -6.88351,-19.18622 -16.44197,-24.00149 -1.15556,8.28663 -0.2783,17.83478 -4.15773,22.48958 -1.95529,-14.32174 -10.03853,-25.4579 -8.31548,-30.61607 -7.832669,4.2414 -10.10446,19.60457 -15.119041,29.48215 -6.156762,-7.23532 -4.359904,-14.92743 -6.047621,-23.05655 -7.231671,3.20083 -11.671373,14.17618 -16.063985,24.00149 L 67.123199,127.9292 c -5.513266,2.8821 -9.287278,18.00465 -9.638394,27.97024 -5.44736,-0.25933 -5.315122,-7.02819 -7.9375,-10.58333 -11.259284,10.40342 -8.803024,19.66389 -8.504463,29.10416 z"
             id="path833"
             sodipodi:nodetypes="czccccccccccccccccc" />
          <path
             id="path837"
             style="opacity:1;fill:#000000;stroke:none;stroke-width:0.755906"
             d="m 260.66797,279.76562 c -2.00777,-0.005 -4.04451,0.0115 -6.10938,0.0469 -54.3719,0.93069 -89.15745,20.36487 -93.5039,72.73047 h -31.75586 v 28.28515 h 33.29297 c 9.53703,36.85328 51.81457,70.71094 88.93554,70.71094 37.78052,0 93.80338,-33.42109 104.32422,-70.71094 h 53.01367 c 7.41905,38.88152 66.14045,74.75001 105.28125,74.75 38.47368,0 82.48886,-36.36991 89.84766,-74.75 h 35.43164 v -28.28515 h -35.2168 c -5.77803,-49.32388 -40.14394,-67.78314 -93.09179,-68.68945 -59.32118,-1.01541 -95.16847,14.11308 -101.87891,68.68945 h -52.35937 c -5.23627,-55.91104 -39.13773,-72.64263 -96.21094,-72.77735 z"
             transform="matrix(0.26458333,0,0,0.26458333,0,97)" />
        </g>
        <g
           style="opacity:0.5;fill:#000000"
           id="g854"
           transform="translate(1.069078,-3.2072344)">
          <path
             sodipodi:nodetypes="ccsssssccccccccc"
             id="path850"
             d="m 31.593431,171.77443 c 5.06236,24.50014 5.51002,85.04446 72.949409,86.17858 0,0 -5.130892,-1.71482 -2.78773,-16.56839 0.2505,-1.58791 1.49512,-1.19653 -0.58635,-6.96768 -0.52615,-1.45883 0.32455,-11.14117 -0.28648,-12.39414 -2.571113,-5.27229 -5.246891,-8.16141 -5.246891,-8.16141 -1.152239,-5.44561 4.829511,-15.51268 3.92836,-22.49876 -2.109025,-16.35004 -1.950689,-31.1258 6.490991,-81.57629 -7.832669,4.2414 -10.10446,19.60457 -15.119041,29.48215 -6.156762,-7.23532 -4.359904,-14.92743 -6.047621,-23.05655 -7.231671,3.20083 -11.671373,14.17618 -16.063985,24.00149 L 67.123199,127.9292 c -5.513266,2.8821 -9.287278,18.00465 -9.638394,27.97024 -5.44736,-0.25933 -5.315122,-7.02819 -7.9375,-10.58333 -11.259284,10.40342 -8.803024,19.66389 -8.504463,29.10416 z"
             style="fill:#000000;stroke:none;stroke-width:0.264583px;stroke-linecap:butt;stroke-linejoin:miter;stroke-opacity:1" />
          <path
             transform="matrix(0.26458333,0,0,0.26458333,0,97)"
             d="m 260.66797,279.76562 c -2.00777,-0.005 -4.04451,0.0115 -6.10938,0.0469 -54.3719,0.93069 -89.15745,20.36487 -93.5039,72.73047 h -31.75586 v 28.28515 h 33.29297 c 9.53703,36.85328 51.81457,70.71094 88.93554,70.71094 37.78052,0 93.80338,-33.42109 104.32422,-70.71094 h 53.01367 c 7.41905,38.88152 66.14045,74.75001 105.28125,74.75 38.47368,0 82.48886,-36.36991 89.84766,-74.75 h 35.43164 v -28.28515 h -35.2168 c -5.77803,-49.32388 -40.14394,-67.78314 -93.09179,-68.68945 -59.32118,-1.01541 -95.16847,14.11308 -101.87891,68.68945 h -52.35937 c -5.23627,-55.91104 -39.13773,-72.64263 -96.21094,-72.77735 z"
             style="opacity:1;fill:#000000;stroke:none;stroke-width:0.755906"
             id="path852" />
        </g>
        <circle
           id="path838"
           style="fill:#00ff00;stroke:#000000;stroke-width:0.264583"
           cx="119.73675"
           cy="114.63979"
           r="0.026700225" />
        <path
           style="opacity:0.5;fill:#000000;stroke:none;stroke-width:0.264583px;stroke-linecap:butt;stroke-linejoin:miter;stroke-opacity:1"
           d="m 119.59703,114.7056 c -1.00386,7.87304 -0.70031,19.31012 -4.15773,22.48957 0.36408,0.21845 4.7998,-7.11687 5.09926,-11.4637 0.29945,-4.34683 -0.94153,-11.02587 -0.94153,-11.02587 z"
           id="path840"
           sodipodi:nodetypes="cczc" />
        <path
           style="opacity:0.5;fill:#000000;stroke:none;stroke-width:0.264583px;stroke-linecap:butt;stroke-linejoin:miter;stroke-opacity:1"
           d="m 137.55091,126.42285 c -0.29088,4.34335 0.15422,9.54535 -1.51191,12.28424 1.89148,-2.28051 2.42762,-6.79276 2.3904,-8.60481 -0.0372,-1.81204 -0.87849,-3.67943 -0.87849,-3.67943 z"
           id="path842"
           sodipodi:nodetypes="cczc" />
        <path
           style="opacity:0.5;fill:#000000;stroke:none;stroke-width:0.264583px;stroke-linecap:butt;stroke-linejoin:miter;stroke-opacity:1"
           d="m 155.50477,142.86482 c -2.0793,5.49598 -2.62469,11.8644 -7.18154,11.71727 3.18448,0.65841 5.84257,-3.56718 6.69031,-6.8428 0.84774,-3.27563 0.49123,-4.87447 0.49123,-4.87447 z"
           id="path844"
           sodipodi:nodetypes="cczc" />
        <path
           style="opacity:0.5;fill:#000000;stroke:none;stroke-width:0.264583px;stroke-linecap:butt;stroke-linejoin:miter;stroke-opacity:1"
           d="m 164.5762,171.59101 c 2.53738,3.13953 5.29167,-1.25992 7.9375,-1.88988 0,0 -3.99001,3.79962 -5.80433,3.63773 -1.81432,-0.16189 -2.13317,-1.74785 -2.13317,-1.74785 z"
           id="path846"
           sodipodi:nodetypes="cczc" />
        <path
           style="opacity:0.5;fill:#ff0000;stroke:none;stroke-width:0.264583px;stroke-linecap:butt;stroke-linejoin:miter;stroke-opacity:1"
           d="m 85.957155,113.00471 c 1.494468,9.25585 0.316996,15.69663 6.047621,23.05654 0,0 -5.712672,-6.61374 -7.013068,-10.86431 -1.300395,-4.25058 0.965447,-12.19223 0.965447,-12.19223 z"
           id="path853"
           sodipodi:nodetypes="cczc" />
        <path
           style="opacity:0.5;fill:#ff0000;stroke:none;stroke-width:0.264583px;stroke-linecap:butt;stroke-linejoin:miter;stroke-opacity:1"
           d="m 68.192276,124.72196 c 0,0 -0.512909,4.86188 -0.06207,6.95735 0.450842,2.09548 1.762963,5.32689 1.762963,5.32689 z"
           id="path855"
           sodipodi:nodetypes="czcc" />
        <path
           style="opacity:0.5;fill:#ff0000;stroke:none;stroke-width:0.264583px;stroke-linecap:butt;stroke-linejoin:miter;stroke-opacity:1"
           d="m 50.616381,142.10888 c 2.483519,3.73067 2.773713,10.20299 7.937502,10.58333 0,0 -3.488382,-0.10463 -5.164746,-2.0196 -1.676365,-1.91497 -2.772756,-8.56373 -2.772756,-8.56373 z"
           id="path857"
           sodipodi:nodetypes="cczc" />
        <path
           style="opacity:0.5;fill:#ff0000;stroke:none;stroke-width:0.264583px;stroke-linecap:butt;stroke-linejoin:miter;stroke-opacity:1"
           d="m 32.662508,168.5672 c 3.169372,0.88866 6.681265,1.89483 9.449411,2.64583 0,0 -2.523444,0.25968 -4.226465,-0.17937 -1.70302,-0.43904 -5.222946,-2.46646 -5.222946,-2.46646 z"
           id="path859"
           sodipodi:nodetypes="cczc" />
      </g>
    </g>
  </g>
</svg>
