<?xml version="1.0" encoding="UTF-8" standalone="no"?>
<!-- Created with Inkscape (http://www.inkscape.org/) -->

<svg
   width="210mm"
   height="297mm"
   viewBox="0 0 210 297"
   version="1.1"
   id="svg5"
   inkscape:version="1.1.1 (3bf5ae0d25, 2021-09-20)"
   sodipodi:docname="vdo logo.svg"
   xmlns:inkscape="http://www.inkscape.org/namespaces/inkscape"
   xmlns:sodipodi="http://sodipodi.sourceforge.net/DTD/sodipodi-0.dtd"
   xmlns="http://www.w3.org/2000/svg"
   xmlns:svg="http://www.w3.org/2000/svg">
  <sodipodi:namedview
     id="namedview7"
     pagecolor="#ffffff"
     bordercolor="#666666"
     borderopacity="1.0"
     inkscape:pageshadow="2"
     inkscape:pageopacity="0.0"
     inkscape:pagecheckerboard="0"
     inkscape:document-units="mm"
     showgrid="false"
     showguides="true"
     inkscape:guide-bbox="true"
     inkscape:zoom="0.44364477"
     inkscape:cx="397.84082"
     inkscape:cy="500.40035"
     inkscape:window-width="1366"
     inkscape:window-height="706"
     inkscape:window-x="-8"
     inkscape:window-y="-8"
     inkscape:window-maximized="1"
     inkscape:current-layer="layer1" />
  <defs
     id="defs2">
    <inkscape:perspective
       sodipodi:type="inkscape:persp3d"
       inkscape:vp_x="0 : 148.5 : 1"
       inkscape:vp_y="0 : 1000 : 0"
       inkscape:vp_z="210 : 148.5 : 1"
       inkscape:persp3d-origin="105 : 99 : 1"
       id="perspective37" />
  </defs>
  <g
     inkscape:label="Camada 1"
     inkscape:groupmode="layer"
     id="layer1">
    <g
       id="g850"
       transform="matrix(3.1802899,0,0,3.1802899,-152.23928,-205.73596)">
      <path
         id="rect1081"
         style="fill:#ff0000;stroke:none;stroke-width:0.264583"
         d="m 63.813251,96.167167 h 34.739457 l -0.149096,22.215363 c -0.170211,25.36157 -34.851069,25.5592 -34.739457,0 z"
         sodipodi:nodetypes="ccssc" />
      <path
         style="fill:#0000ff;stroke:none;stroke-width:0.264583px;stroke-linecap:butt;stroke-linejoin:miter;stroke-opacity:1"
         d="m 82.748492,96.360336 v 40.957434 c -2.732691,0 -19.353581,0 -19.233433,-19.08434 L 63.81325,96.167166 Z"
         id="path6645"
         sodipodi:nodetypes="ccccc" />
      <path
         style="fill:#00ff00;stroke:none;stroke-width:0.264583px;stroke-linecap:butt;stroke-linejoin:miter;stroke-opacity:1"
         d="m 68.807982,118.23343 1.714606,-6.78389 2.683736,-4.0256 5.218374,-8.945775 0.44729,7.380265 8.945781,-8.200297 -2.46009,6.262047 11.704068,0.2982 -4.920182,3.57831 5.814759,6.18749 -4.47289,2.75829 4.10015,8.0512 c -1.68901,5.22559 -4.560382,8.35932 -8.07304,10.35845 l -6.762052,-12.74399 -10.809488,6.26205 5.591114,-7.60392 5.218374,-4.62199 -7.305723,1.78916 -5.143824,7.15663 z"
         id="path1551"
         sodipodi:nodetypes="cccccccccccccccccccc" />
      <path
         style="fill:#0000ff;stroke:none;stroke-width:0.264583px;stroke-linecap:butt;stroke-linejoin:miter;stroke-opacity:1"
         d="m 74.995481,112.56777 5.814758,-5.81476 1.938253,3.80196 z"
         id="path4156" />
      <path
         style="fill:#0000ff;stroke:#000000;stroke-width:0.264583px;stroke-linecap:butt;stroke-linejoin:miter;stroke-opacity:1"
         d="m 59.623895,129.56476 3.727408,0.59638 -2.236444,6.56025 -5.665663,-2.38555 z"
         id="path5598" />
      <path
         style="fill:none;stroke:#0000ff;stroke-width:0.264583px;stroke-linecap:butt;stroke-linejoin:miter;stroke-opacity:1"
         d="m 61.278615,129.56476 c 0.59268,-0.53417 1.038123,-2.53734 0.782532,-3.69026 -1.123002,-5.06564 -10.63932,-7.36912 -7.519452,-12.14372 1.818565,-2.78311 5.882552,-2.66515 8.708738,-3.74141 0.180074,0.0631 0.120459,-0.0401 0.115529,-0.10531"
         id="path5635"
         sodipodi:nodetypes="csscc" />
      <path
         style="fill:none;stroke:#0000ff;stroke-width:0.264583px;stroke-linecap:butt;stroke-linejoin:miter;stroke-opacity:1"
         d="m 100.69995,130.15259 c -0.59268,-0.53417 -1.03812,-2.53734 -0.782533,-3.69026 1.123003,-5.06564 10.639323,-7.36912 7.519453,-12.14372 -1.81857,-2.78311 -5.88255,-2.66515 -8.708737,-3.74141 -0.180067,0.0631 -0.120457,-0.0401 -0.115527,-0.10531"
         id="path5635-4"
         sodipodi:nodetypes="csscc" />
      <path
         style="fill:#0000ff;stroke:#000000;stroke-width:0.264583px;stroke-linecap:butt;stroke-linejoin:miter;stroke-opacity:1"
         d="m 102.82395,130.00349 -3.727413,0.59638 2.236443,6.56025 5.66566,-2.38555 z"
         id="path5598-9" />
      <path
         style="fill:none;stroke:#0000ff;stroke-width:0.264583px;stroke-linecap:butt;stroke-linejoin:miter;stroke-opacity:1"
         d="m 98.55271,114.18461 c 4.06393,0.19295 8.93078,0.0478 11.90116,2.64048 0.99327,1.11839 1.02967,2.78636 0.60585,4.14967 -1.36411,8.1717 -5.44645,8.14039 -1.76232,15.83904"
         id="path5637"
         sodipodi:nodetypes="cccc" />
      <path
         style="fill:none;stroke:#0000ff;stroke-width:0.264583px;stroke-linecap:butt;stroke-linejoin:miter;stroke-opacity:1"
         d="m 64.145481,114.53461 c -4.06393,0.19295 -8.93078,0.0478 -11.90116,2.64048 -0.99327,1.11839 -1.02967,2.78636 -0.60585,4.14967 1.36411,8.1717 5.44645,8.14039 1.76232,15.83904"
         id="path5637-2"
         sodipodi:nodetypes="cccc" />
      <ellipse
         style="fill:#ff0000;stroke:none;stroke-width:0.443947"
         id="path7823"
         cx="77.157379"
         cy="91.17244"
         rx="4.6965361"
         ry="4.5474396" />
      <ellipse
         style="fill:#0000ff;stroke:none;stroke-width:0.398636"
         id="path7825"
         cx="88.86145"
         cy="93.185242"
         rx="4.7710857"
         ry="4.6219878" />
    </g>
    <rect
       style="fill:#00ff00;stroke-width:0.264583"
       id="rect918"
       width="107.1139"
       height="16.024914"
       x="58.617447"
       y="240.79543" />
    <rect
       style="fill:#00ff00;stroke-width:0.264583"
       id="rect920"
       width="41.327412"
       height="13.494664"
       x="22.350538"
       y="252.60324" />
    <rect
       style="fill:#00ff00;stroke-width:0.264583"
       id="rect922"
       width="39.218868"
       height="13.916373"
       x="154.76694"
       y="255.1335" />
    <rect
       style="fill:#00ff00;stroke-width:0.264583"
       id="rect1026"
       width="157.44579"
       height="31.012049"
       x="26.837349"
       y="12.524096" />
  </g>
</svg>
