<?xml version="1.0" encoding="UTF-8" standalone="no"?>
<svg
   xmlns:dc="http://purl.org/dc/elements/1.1/"
   xmlns:cc="http://creativecommons.org/ns#"
   xmlns:rdf="http://www.w3.org/1999/02/22-rdf-syntax-ns#"
   xmlns:svg="http://www.w3.org/2000/svg"
   xmlns="http://www.w3.org/2000/svg"
   xmlns:sodipodi="http://sodipodi.sourceforge.net/DTD/sodipodi-0.dtd"
   xmlns:inkscape="http://www.inkscape.org/namespaces/inkscape"
   aria-hidden="true"
   focusable="false"
   data-prefix="fab"
   data-icon="whatsapp-square"
   class="svg-inline--fa fa-whatsapp-square fa-w-14"
   role="img"
   viewBox="0 0 320 320"
   version="1.1"
   id="svg4"
   sodipodi:docname="whatsapp-square-brands.svg"
   width="320"
   height="320"
   inkscape:version="0.92.5 (2060ec1f9f, 2020-04-08)">
  <metadata
     id="metadata10">
    <rdf:RDF>
      <cc:Work
         rdf:about="">
        <dc:format>image/svg+xml</dc:format>
        <dc:type
           rdf:resource="http://purl.org/dc/dcmitype/StillImage" />
        <dc:title></dc:title>
      </cc:Work>
    </rdf:RDF>
  </metadata>
  <defs
     id="defs8" />
  <sodipodi:namedview
     pagecolor="#ffffff"
     bordercolor="#666666"
     borderopacity="1"
     objecttolerance="10"
     gridtolerance="10"
     guidetolerance="10"
     inkscape:pageopacity="0"
     inkscape:pageshadow="2"
     inkscape:window-width="640"
     inkscape:window-height="480"
     id="namedview6"
     showgrid="false"
     fit-margin-top="0"
     fit-margin-left="0"
     fit-margin-right="0"
     fit-margin-bottom="0"
     inkscape:zoom="0.4609375"
     inkscape:cx="107.29333"
     inkscape:cy="109.51078"
     inkscape:window-x="0"
     inkscape:window-y="0"
     inkscape:window-maximized="0"
     inkscape:current-layer="svg4" />
  <path
     d="m 160,26.8 c -72.7,0 -131.8,59.1 -131.9,131.8 0,24.9 7,49.2 20.2,70.1 l 3.1,5 -13.3,48.6 49.9,-13.1 4.8,2.9 c 20.2,12 43.4,18.4 67.1,18.4 h 0.1 c 72.6,0 133.3,-59.1 133.3,-131.8 0,-35.2 -15.2,-68.3 -40.1,-93.2 -25,-25 -58,-38.7 -93.2,-38.7 z m 77.5,188.4 c -3.3,9.3 -19.1,17.7 -26.7,18.8 -12.6,1.9 -22.4,0.9 -47.5,-9.9 -39.7,-17.2 -65.7,-57.2 -67.7,-59.8 -2,-2.6 -16.2,-21.5 -16.2,-41 0,-19.5 10.2,-29.1 13.9,-33.1 3.6,-4 7.9,-5 10.6,-5 2.6,0 5.3,0 7.6,0.1 2.4,0.1 5.7,-0.9 8.9,6.8 3.3,7.9 11.2,27.4 12.2,29.4 1,2 1.7,4.3 0.3,6.9 -7.6,15.2 -15.7,14.6 -11.6,21.6 15.3,26.3 30.6,35.4 53.9,47.1 4,2 6.3,1.7 8.6,-1 2.3,-2.6 9.9,-11.6 12.5,-15.5 2.6,-4 5.3,-3.3 8.9,-2 3.6,1.3 23.1,10.9 27.1,12.9 4,2 6.6,3 7.6,4.6 0.9,1.9 0.9,9.9 -2.4,19.1 z m -77.6,102 c -26.6,0 -52.7,-6.7 -75.8,-19.3 L 0,320 22.5,237.8 C 8.6,213.8 1.3,186.5 1.3,158.5 1.4,71.1 72.5,0 159.9,0 c 42.4,0 82.2,16.5 112.2,46.5 29.9,30 47.9,69.8 47.9,112.2 0,87.4 -72.7,158.5 -160.1,158.5 z"
     id="path2"
     inkscape:connector-curvature="0"
     style="fill:currentColor"
     sodipodi:nodetypes="sccccccssssscccsscsccscccccssccsccccscss" />
</svg>
